<?xml version="1.0" standalone="no"?>
<!DOCTYPE svg PUBLIC "-//W3C//DTD SVG 20010904//EN"
 "http://www.w3.org/TR/2001/REC-SVG-20010904/DTD/svg10.dtd">
<svg version="1.0" xmlns="http://www.w3.org/2000/svg"
 width="291.000000pt" height="291.000000pt" viewBox="0 0 291.000000 291.000000"
 preserveAspectRatio="xMidYMid meet">
<metadata>
Created by potrace 1.14, written by Peter Selinger 2001-2017
</metadata>
<g transform="translate(0.000000,291.000000) scale(0.100000,-0.100000)"
fill="#000000" stroke="none">
<path d="M2254 1542 c-197 -145 -365 -269 -371 -275 -10 -10 15 -13 121 -12
l133 0 69 51 c230 170 614 451 643 471 l34 23 -99 1 c-54 0 -115 1 -135 2 -32
2 -72 -24 -395 -261z"/>
<path d="M109 1775 c-65 -22 -74 -48 -77 -219 -4 -177 5 -214 60 -242 46 -24
132 -23 166 3 31 23 51 71 51 126 l1 37 -50 0 c-33 0 -50 -4 -51 -12 -4 -66
-7 -80 -16 -89 -13 -13 -53 -3 -54 14 -3 49 -4 266 -1 284 5 26 39 40 56 23 6
-6 11 -30 11 -53 l1 -42 39 -1 c65 -1 68 2 62 65 -5 46 -11 61 -37 84 -17 15
-40 28 -53 28 -12 1 -34 2 -48 3 -15 1 -42 -3 -60 -9z"/>
<path d="M1650 1769 c-63 -28 -72 -61 -68 -244 2 -125 6 -156 21 -178 21 -33
56 -48 112 -51 61 -3 98 12 126 52 23 33 24 44 25 181 2 165 -8 206 -57 235
-42 25 -109 27 -159 5z m98 -71 c13 -17 13 -299 0 -315 -17 -20 -46 -15 -54
10 -8 26 -7 271 1 298 7 22 38 25 53 7z"/>
<path d="M368 1774 c-2 -5 -4 -112 -4 -239 l1 -230 53 -3 52 -3 0 110 c0 90 3
111 15 111 15 0 21 -18 51 -144 l18 -76 53 0 c29 0 53 4 53 8 0 5 -7 31 -15
58 -8 27 -21 76 -29 108 -16 59 -16 59 9 84 14 14 26 32 26 41 8 97 -3 135
-44 160 -25 17 -232 29 -239 15z m173 -80 c18 -22 19 -76 1 -96 -8 -10 -28
-18 -44 -18 -28 0 -28 0 -28 65 0 65 0 65 29 65 16 0 34 -7 42 -16z"/>
<path d="M680 1772 c0 -9 9 -38 51 -167 25 -79 32 -119 34 -195 1 -52 3 -98 4
-102 0 -5 24 -8 51 -8 l50 0 0 103 c0 78 5 119 21 168 12 35 23 71 24 79 2 8
13 41 24 73 l20 57 -49 0 c-50 0 -53 -2 -65 -57 -2 -10 -8 -32 -14 -50 -5 -17
-7 -34 -5 -37 2 -4 0 -3 -5 1 -4 5 -16 38 -26 76 l-18 67 -48 0 c-27 0 -49 -3
-49 -8z"/>
<path d="M999 1778 c-4 -8 -5 -455 -1 -465 3 -8 23 -13 53 -13 l49 0 0 103 0
102 49 1 c55 1 104 26 120 61 16 35 13 119 -4 153 -24 47 -61 60 -170 60 -52
0 -96 -1 -96 -2z m173 -84 c12 -8 9 -89 -4 -102 -7 -7 -25 -12 -41 -12 -28 0
-28 0 -26 58 1 31 4 60 6 64 3 7 50 1 65 -8z"/>
<path d="M1307 1773 c-3 -7 -2 -30 2 -63 0 -5 17 -10 37 -10 l35 0 -1 -137
c-1 -76 -1 -166 -1 -200 l1 -63 53 0 53 0 -1 198 0 197 36 3 c36 3 37 4 36 43
l-1 39 -122 0 c-68 0 -125 -3 -127 -7z"/>
<path d="M1946 1751 c34 -31 275 -202 282 -199 16 7 121 83 121 88 0 3 -36 31
-80 63 l-80 57 -126 0 c-73 0 -123 -4 -117 -9z"/>
<path d="M2470 1474 c-25 -20 -52 -40 -60 -45 -13 -7 -13 -10 -1 -18 10 -7 32
4 76 37 39 29 58 50 51 54 -16 11 -17 11 -66 -28z"/>
<path d="M2500 1440 c-55 -40 -72 -60 -51 -60 17 0 132 86 124 93 -10 11 -15
9 -73 -33z"/>
<path d="M2532 1413 c-43 -31 -59 -48 -51 -54 7 -4 34 9 68 34 31 23 58 43 60
44 3 2 0 7 -5 12 -5 6 -34 -9 -72 -36z"/>
<path d="M2570 1389 c-50 -37 -68 -59 -47 -59 15 -1 126 84 121 92 -8 13 -16
10 -74 -33z"/>
<path d="M2608 1366 c-48 -35 -73 -66 -53 -66 11 0 125 84 125 91 0 20 -20 13
-72 -25z"/>
<path d="M2645 1342 c-33 -25 -44 -38 -33 -40 20 -4 110 56 103 69 -9 14 -16
11 -70 -29z"/>
<path d="M2695 1325 c-23 -19 -26 -25 -12 -25 21 0 67 28 67 41 0 16 -24 9
-55 -16z"/>
<path d="M2754 1315 c-18 -14 -17 -14 15 -15 29 0 32 2 21 15 -15 18 -12 18
-36 0z"/>
<path d="M1880 1155 l0 -65 34 0 c41 0 65 24 49 49 -7 11 -7 23 -2 33 13 23
-15 48 -52 48 l-29 0 0 -65z m59 41 c9 -10 8 -16 -4 -26 -19 -16 -41 1 -32 24
8 20 21 20 36 2z m8 -61 c7 -19 4 -22 -22 -27 -14 -2 -21 3 -23 20 -3 17 2 22
18 22 11 0 23 -7 27 -15z"/>
<path d="M2114 1155 l1 -65 35 0 c39 0 65 26 49 51 -4 8 -6 24 -3 36 6 24 -19
43 -58 43 -23 0 -24 -3 -24 -65z m64 27 c-2 -8 -13 -17 -25 -18 -19 -3 -22 0
-19 19 3 12 5 23 5 24 1 0 10 -1 21 -4 12 -3 20 -12 18 -21z m-4 -38 c12 -5
13 -11 6 -24 -15 -27 -48 -22 -46 7 1 23 12 28 40 17z"/>
<path d="M2229 1220 c-7 -25 -2 -129 5 -127 12 4 14 103 4 120 -4 7 -8 10 -9
7z"/>
<path d="M2286 1207 c-26 -19 -24 -86 3 -108 30 -25 75 -11 79 23 2 19 -2 27
-17 31 -12 3 -24 1 -27 -4 -3 -5 2 -9 11 -9 10 0 15 -7 13 -17 -2 -12 -12 -18
-28 -18 -20 0 -26 6 -30 30 -3 17 -4 37 -2 47 5 22 40 30 51 11 4 -9 14 -14
21 -11 9 3 8 8 -4 21 -21 20 -46 22 -70 4z"/>
<path d="M2441 1206 c-15 -18 2 -56 24 -56 18 0 47 -29 40 -41 -9 -14 -32 -11
-50 7 -20 20 -33 10 -15 -11 8 -10 25 -15 44 -13 26 2 31 7 31 28 0 19 -8 29
-32 39 -36 16 -43 35 -16 45 11 5 22 1 30 -10 15 -21 26 -14 17 10 -8 20 -57
21 -73 2z"/>
<path d="M2541 1155 c-1 -39 2 -65 9 -65 5 0 10 14 10 30 0 27 3 30 30 30 27
0 30 -3 30 -30 0 -16 5 -30 10 -30 6 0 10 29 10 67 0 62 -13 78 -22 28 -2 -14
-12 -20 -31 -21 -23 -1 -27 3 -27 27 0 16 -4 29 -9 29 -4 0 -9 -29 -10 -65z"/>
<path d="M2678 1203 c-19 -22 -17 -91 3 -104 21 -13 55 -11 68 5 18 22 21 72
5 95 -18 26 -55 27 -76 4z m56 -9 c36 -35 5 -105 -36 -83 -17 9 -19 17 -15 47
4 19 12 39 19 44 17 10 14 11 32 -8z"/>
<path d="M2775 1211 c-3 -6 4 -8 15 -6 18 4 20 -1 20 -56 0 -33 4 -59 10 -59
6 0 10 26 10 59 0 54 2 60 20 56 11 -2 20 0 20 6 0 12 -87 12 -95 0z"/>
<path d="M1980 1180 c0 -6 7 -27 15 -47 9 -20 13 -43 10 -51 -3 -7 0 -12 6
-10 13 4 51 118 40 118 -4 0 -13 -17 -21 -37 l-13 -38 -9 32 c-8 31 -28 55
-28 33z"/>
</g>
</svg>
